<mxfile host="app.diagrams.net" agent="Mozilla/5.0 (Macintosh; Intel Mac OS X 10_15_7) AppleWebKit/537.36 (KHTML, like Gecko) Chrome/137.0.0.0 Safari/537.36 Edg/137.0.0.0" version="28.1.0">
  <diagram name="第 1 页" id="BM_2q7x5z9G6kzhM3dPp">
    <mxGraphModel dx="994" dy="561" grid="1" gridSize="10" guides="1" tooltips="1" connect="1" arrows="1" fold="1" page="1" pageScale="1" pageWidth="1169" pageHeight="827" math="0" shadow="0">
      <root>
        <mxCell id="0" />
        <mxCell id="1" parent="0" />
        <mxCell id="7dKtG9tMF7ud2aemnBJJ-15" style="edgeStyle=orthogonalEdgeStyle;rounded=0;orthogonalLoop=1;jettySize=auto;html=1;exitX=1;exitY=0.5;exitDx=0;exitDy=0;" edge="1" parent="1" source="7dKtG9tMF7ud2aemnBJJ-1" target="7dKtG9tMF7ud2aemnBJJ-11">
          <mxGeometry relative="1" as="geometry" />
        </mxCell>
        <mxCell id="7dKtG9tMF7ud2aemnBJJ-1" value="索引key：002&lt;div&gt;物理地址：0x32&lt;/div&gt;" style="rounded=1;whiteSpace=wrap;html=1;fontStyle=1;fontSize=16;align=left;" vertex="1" parent="1">
          <mxGeometry x="410" y="170" width="120" height="60" as="geometry" />
        </mxCell>
        <mxCell id="7dKtG9tMF7ud2aemnBJJ-2" value="1" style="rounded=0;whiteSpace=wrap;html=1;fontSize=16;" vertex="1" parent="1">
          <mxGeometry x="190" y="110" width="120" height="60" as="geometry" />
        </mxCell>
        <mxCell id="7dKtG9tMF7ud2aemnBJJ-10" style="edgeStyle=orthogonalEdgeStyle;rounded=0;orthogonalLoop=1;jettySize=auto;html=1;exitX=1;exitY=0.5;exitDx=0;exitDy=0;" edge="1" parent="1" source="7dKtG9tMF7ud2aemnBJJ-5" target="7dKtG9tMF7ud2aemnBJJ-1">
          <mxGeometry relative="1" as="geometry" />
        </mxCell>
        <mxCell id="7dKtG9tMF7ud2aemnBJJ-5" value="2" style="rounded=0;whiteSpace=wrap;html=1;fontSize=16;" vertex="1" parent="1">
          <mxGeometry x="190" y="170" width="120" height="60" as="geometry" />
        </mxCell>
        <mxCell id="7dKtG9tMF7ud2aemnBJJ-6" value="3" style="rounded=0;whiteSpace=wrap;html=1;fontSize=16;" vertex="1" parent="1">
          <mxGeometry x="190" y="230" width="120" height="60" as="geometry" />
        </mxCell>
        <mxCell id="7dKtG9tMF7ud2aemnBJJ-14" style="edgeStyle=orthogonalEdgeStyle;rounded=0;orthogonalLoop=1;jettySize=auto;html=1;exitX=1;exitY=0.5;exitDx=0;exitDy=0;" edge="1" parent="1" source="7dKtG9tMF7ud2aemnBJJ-7" target="7dKtG9tMF7ud2aemnBJJ-13">
          <mxGeometry relative="1" as="geometry" />
        </mxCell>
        <mxCell id="7dKtG9tMF7ud2aemnBJJ-7" value="4" style="rounded=0;whiteSpace=wrap;html=1;fontSize=16;" vertex="1" parent="1">
          <mxGeometry x="190" y="290" width="120" height="60" as="geometry" />
        </mxCell>
        <mxCell id="7dKtG9tMF7ud2aemnBJJ-8" value="5" style="rounded=0;whiteSpace=wrap;html=1;fontSize=16;" vertex="1" parent="1">
          <mxGeometry x="190" y="350" width="120" height="60" as="geometry" />
        </mxCell>
        <mxCell id="7dKtG9tMF7ud2aemnBJJ-11" value="索引key：003&lt;div&gt;物理地址：0x35&lt;/div&gt;" style="rounded=1;whiteSpace=wrap;html=1;fontStyle=1;fontSize=16;align=left;" vertex="1" parent="1">
          <mxGeometry x="640" y="170" width="120" height="60" as="geometry" />
        </mxCell>
        <mxCell id="7dKtG9tMF7ud2aemnBJJ-12" value="0" style="rounded=0;whiteSpace=wrap;html=1;fontSize=16;" vertex="1" parent="1">
          <mxGeometry x="190" y="50" width="120" height="60" as="geometry" />
        </mxCell>
        <mxCell id="7dKtG9tMF7ud2aemnBJJ-13" value="&lt;div&gt;&lt;span style=&quot;text-align: left;&quot;&gt;索引key：005&lt;/span&gt;&lt;div style=&quot;text-align: left;&quot;&gt;物理地址：0x68&lt;/div&gt;&lt;/div&gt;" style="rounded=1;whiteSpace=wrap;html=1;fontStyle=1;fontSize=16;" vertex="1" parent="1">
          <mxGeometry x="410" y="290" width="120" height="60" as="geometry" />
        </mxCell>
        <mxCell id="7dKtG9tMF7ud2aemnBJJ-16" value="&lt;font style=&quot;font-size: 14px;&quot;&gt;假如002和003的hash值都是2&lt;/font&gt;" style="text;html=1;align=center;verticalAlign=middle;whiteSpace=wrap;rounded=0;" vertex="1" parent="1">
          <mxGeometry x="410" y="110" width="235" height="30" as="geometry" />
        </mxCell>
        <mxCell id="7dKtG9tMF7ud2aemnBJJ-17" value="&lt;font style=&quot;font-size: 14px;&quot;&gt;假如005的hash值是4&lt;/font&gt;" style="text;html=1;align=center;verticalAlign=middle;whiteSpace=wrap;rounded=0;" vertex="1" parent="1">
          <mxGeometry x="410" y="365" width="235" height="30" as="geometry" />
        </mxCell>
      </root>
    </mxGraphModel>
  </diagram>
</mxfile>
